<svg width="197" height="35" viewBox="0 0 197 35" fill="none" xmlns="http://www.w3.org/2000/svg">
<path fill-rule="evenodd" clip-rule="evenodd" d="M0 7H6.01795V25.0012H0V7ZM8.02734 7H14.0035V31H8.02734V7Z" fill="white"/>
<path d="M77.1562 19.3896C77.1562 17.3224 77.7835 15.6446 79.0082 14.3862C80.2628 13.0979 81.8758 12.4688 83.8472 12.4688C85.7589 12.4688 87.2226 13.038 88.2382 14.1765C89.2836 15.285 89.8512 16.6333 90.0005 18.1912L87.82 18.341C87.6109 16.064 86.207 14.4761 83.8173 14.4761C81.3978 14.4761 79.6952 16.3936 79.6952 19.3896C79.6952 22.3857 81.3978 24.3032 83.8173 24.3032C86.207 24.3032 87.6109 22.6254 87.82 20.3484L90.0005 20.5581C89.8512 22.146 89.2836 23.4942 88.2382 24.6028C87.2226 25.7113 85.7589 26.2806 83.8472 26.2806C81.8758 26.2806 80.2628 25.6514 79.0082 24.393C77.7835 23.1347 77.1562 21.4569 77.1562 19.3896Z" fill="white"/>
<path d="M72.0703 9.86317V7.04688H74.6392V9.86317H72.0703ZM72.1301 12.8293H74.6093V25.922H72.1301V12.8293Z" fill="white"/>
<path d="M58.8257 23.1937L58.2881 25.9201H56.4062V7.04492H58.8855V15.5837C59.453 13.9958 61.1556 12.4678 63.5751 12.4678C65.4868 12.4678 66.9505 13.1569 67.9959 14.5051C69.0414 15.8533 69.5492 17.4712 69.5492 19.3887C69.5492 21.3061 69.0414 22.924 67.9959 24.2722C66.9505 25.6205 65.4868 26.2796 63.5453 26.2796C61.1556 26.2796 59.4232 24.8415 58.8257 23.1937ZM58.8257 18.9992V19.7482C58.8257 22.6244 60.6478 24.3022 63.0076 24.3022C65.5466 24.3022 66.9804 22.3847 66.9804 19.3887C66.9804 16.3926 65.5466 14.4751 63.0076 14.4751C60.6478 14.4751 58.8257 16.1529 58.8257 18.9992Z" fill="white"/>
<path d="M50.5172 20.3482V12.8281H52.9964V25.9209H50.5172V23.6139C49.8899 25.1719 48.1873 26.2804 46.2457 26.2804C44.5431 26.2804 43.3483 25.7711 42.6314 24.7824C41.9444 23.7637 41.5859 22.5054 41.5859 20.9774V12.8281H44.0652V20.7377C44.0652 22.8949 45.0509 24.333 47.0821 24.333C49.0237 24.333 50.5172 22.7451 50.5172 20.3482Z" fill="white"/>
<path d="M35.8668 30.9542V23.1944C35.2694 24.7823 33.5967 26.2803 31.1772 26.2803C29.2356 26.2803 27.772 25.6212 26.7265 24.273C25.7109 22.9247 25.2031 21.3069 25.2031 19.3894C25.2031 17.4719 25.7109 15.854 26.7265 14.5058C27.772 13.1576 29.2356 12.4685 31.1772 12.4685C33.5967 12.4685 35.2694 13.9965 35.8668 15.5844V12.828H38.3461V30.9542H35.8668ZM35.8967 19.7489V18.9999C35.8967 16.1537 34.1045 14.4759 31.7447 14.4759C29.2058 14.4759 27.7421 16.3933 27.7421 19.3894C27.7421 22.3854 29.2058 24.3029 31.7447 24.3029C34.1045 24.3029 35.8967 22.6251 35.8967 19.7489Z" fill="white"/>
<path d="M102.994 26.416C101.001 26.416 99.4927 25.7747 98.47 24.492C97.4473 23.192 96.936 21.528 96.936 19.5C96.936 17.472 97.4473 15.8167 98.47 14.534C99.4927 13.234 101.001 12.584 102.994 12.584C105.282 12.584 106.885 13.468 107.804 15.236V13H110.404V31.2H107.804V23.764C106.885 25.532 105.282 26.416 102.994 26.416ZM99.562 19.5C99.562 21.1467 99.8653 22.3687 100.472 23.166C101.096 23.946 102.119 24.336 103.54 24.336C106.383 24.336 107.804 22.724 107.804 19.5C107.804 16.276 106.383 14.664 103.54 14.664C102.119 14.664 101.096 15.0627 100.472 15.86C99.8653 16.64 99.562 17.8533 99.562 19.5ZM118.049 26.416C116.368 26.416 115.137 25.974 114.357 25.09C113.595 24.1887 113.213 22.8627 113.213 21.112V13H115.813V20.878C115.813 22.1433 116.073 23.0273 116.593 23.53C117.131 24.0153 117.885 24.258 118.855 24.258C120.034 24.258 120.961 23.7727 121.637 22.802C122.313 21.814 122.651 20.3753 122.651 18.486V13H125.251V26H122.651V23.166C121.785 25.3327 120.251 26.416 118.049 26.416ZM134.113 26.416C132.657 26.416 131.426 26.1127 130.421 25.506C129.415 24.8993 128.661 24.076 128.159 23.036C127.656 21.9787 127.405 20.7913 127.405 19.474C127.405 18.174 127.656 17.004 128.159 15.964C128.661 14.924 129.415 14.1007 130.421 13.494C131.426 12.8873 132.657 12.584 134.113 12.584C135.569 12.584 136.799 12.8873 137.805 13.494C138.81 14.1007 139.564 14.9327 140.067 15.99C140.569 17.03 140.821 18.1913 140.821 19.474C140.821 20.774 140.569 21.9527 140.067 23.01C139.564 24.05 138.81 24.882 137.805 25.506C136.799 26.1127 135.569 26.416 134.113 26.416ZM130.031 19.5C130.031 21.216 130.351 22.4553 130.993 23.218C131.651 23.9633 132.691 24.336 134.113 24.336C135.534 24.336 136.565 23.9633 137.207 23.218C137.865 22.4553 138.195 21.216 138.195 19.5C138.195 17.784 137.865 16.5533 137.207 15.808C136.565 15.0453 135.534 14.664 134.113 14.664C132.691 14.664 131.651 15.0453 130.993 15.808C130.351 16.5533 130.031 17.784 130.031 19.5ZM147.71 26C146.67 26 145.864 25.87 145.292 25.61C144.737 25.3327 144.347 24.9253 144.122 24.388C143.897 23.8333 143.784 23.0967 143.784 22.178V15.002H141.314V13.65L144.018 12.714L145.084 10.062H146.384V13H152.546L153.742 10.062H155.042V13H159.202V15.002H155.042V23.92H158.942V26H156.368C155.328 26 154.522 25.87 153.95 25.61C153.395 25.3327 153.005 24.9253 152.78 24.388C152.555 23.8333 152.442 23.0967 152.442 22.178V15.002H146.384V23.92H150.284V26H147.71ZM166.915 26.416C164.714 26.416 163.067 25.7747 161.975 24.492C160.883 23.2093 160.337 21.5367 160.337 19.474C160.337 18.174 160.58 17.004 161.065 15.964C161.551 14.924 162.287 14.1007 163.275 13.494C164.263 12.8873 165.477 12.584 166.915 12.584C168.25 12.584 169.385 12.8787 170.321 13.468C171.275 14.04 171.985 14.8287 172.453 15.834C172.939 16.8393 173.181 17.9747 173.181 19.24C173.181 19.6733 173.164 20.0027 173.129 20.228H162.885C162.989 21.7707 163.397 22.8713 164.107 23.53C164.818 24.1713 165.78 24.492 166.993 24.492C169.073 24.492 170.33 23.686 170.763 22.074H173.155C172.999 23.218 172.427 24.232 171.439 25.116C170.469 25.9827 168.961 26.416 166.915 26.416ZM170.685 18.33C170.564 15.782 169.316 14.508 166.941 14.508C165.763 14.508 164.835 14.8027 164.159 15.392C163.483 15.964 163.067 16.9433 162.911 18.33H170.685ZM175.225 13H177.799V16.146C178.701 13.91 180.235 12.792 182.401 12.792H182.791V15.314H182.141C180.495 15.314 179.359 15.7907 178.735 16.744C178.129 17.68 177.825 19.11 177.825 21.034V26H175.225V13ZM183.981 29.12H187.829L189.051 26H188.115L183.201 13H185.879L189.389 22.282L189.935 23.842L190.429 22.282L193.991 13H196.513L191.079 27.144C190.663 28.2187 190.29 29.0247 189.961 29.562C189.632 30.0993 189.181 30.5067 188.609 30.784C188.037 31.0613 187.24 31.2 186.217 31.2H183.981V29.12Z" fill="#1ADEF5"/>
</svg>
