<svg width="14" height="16" viewBox="0 0 14 16" fill="none" xmlns="http://www.w3.org/2000/svg">
<g clip-path="url(#clip0_956_496)">
<path d="M0.293701 7.29377C-0.0969238 7.6844 -0.0969238 8.31878 0.293701 8.7094L5.2937 13.7094C5.68433 14.1 6.3187 14.1 6.70933 13.7094C7.09995 13.3188 7.09995 12.6844 6.70933 12.2938L3.41245 9.00003H13C13.5531 9.00003 14 8.55315 14 8.00003C14 7.4469 13.5531 7.00002 13 7.00002H3.41558L6.7062 3.70627C7.09683 3.31565 7.09683 2.68127 6.7062 2.29065C6.31558 1.90002 5.6812 1.90002 5.29058 2.29065L0.290576 7.29065L0.293701 7.29377Z" fill="#B7BABC"/>
</g>
<defs>
<clipPath id="clip0_956_496">
<rect width="14" height="16" fill="white"/>
</clipPath>
</defs>
</svg>
