<svg width="21" height="21" viewBox="0 0 21 21" fill="none" xmlns="http://www.w3.org/2000/svg">
<g clip-path="url(#clip0_956_122)">
<path d="M18.7916 15.9141C19.9713 15.0938 20.6666 14.0859 20.6666 13V11.832C20.151 12.4414 19.5065 12.9766 18.7916 13.4297V15.918V15.9141ZM13.7916 15.2383V17.75C15.2057 17.5156 16.483 17.1289 17.5416 16.6289V14.1016C16.4323 14.6133 15.1627 15 13.7916 15.2344V15.2383ZM8.79163 17.9141C9.39709 17.9727 10.026 18 10.6666 18C11.3073 18 11.9362 17.9687 12.5416 17.9141V15.4102C11.9283 15.4727 11.3033 15.5039 10.6666 15.5039C10.0299 15.5039 9.40491 15.4727 8.79163 15.4102V17.9141ZM3.79163 14.1055V16.6328C4.85022 17.1328 6.12756 17.5195 7.54163 17.7539V15.2422C6.17053 15.0078 4.901 14.6211 3.79163 14.1094V14.1055ZM2.54163 13.4297C1.82678 12.9805 1.18225 12.4453 0.666626 11.832V13C0.666626 14.0898 1.36194 15.0938 2.54163 15.9141V13.4297ZM3.16663 8.3125C3.16663 9.11328 3.57678 9.74609 4.04944 10.1953C4.51819 10.6406 5.13147 10.9805 5.78381 11.2422C7.09631 11.7656 8.82288 12.0625 10.6666 12.0625C12.5104 12.0625 14.2369 11.7656 15.5494 11.2422C16.2018 10.9805 16.8151 10.6406 17.2838 10.1953C17.7565 9.74609 18.1666 9.11328 18.1666 8.3125C18.1666 7.51172 17.7565 6.87891 17.2838 6.42969C16.8151 5.98438 16.2018 5.64453 15.5494 5.38281C14.2369 4.85938 12.5104 4.5625 10.6666 4.5625C8.82288 4.5625 7.09631 4.85938 5.78381 5.38281C5.13147 5.64453 4.51819 5.98438 4.04944 6.42969C3.57678 6.87891 3.16663 7.51172 3.16663 8.3125ZM10.6666 10.8125C7.2135 10.8125 4.41663 9.69141 4.41663 8.3125C4.41663 6.93359 7.2135 5.8125 10.6666 5.8125C14.1198 5.8125 16.9166 6.93359 16.9166 8.3125C16.9166 9.69141 14.1198 10.8125 10.6666 10.8125Z" fill="#61F0FE"/>
<path opacity="0.4" d="M0.666626 8.625C0.666626 11.7305 5.14319 14.25 10.6666 14.25C16.1901 14.25 20.6666 11.7305 20.6666 8.625C20.6666 5.51953 16.1901 3 10.6666 3C5.14319 3 0.666626 5.51953 0.666626 8.625ZM3.16663 8.3125C3.16663 7.51172 3.57678 6.87891 4.04944 6.42969C4.51819 5.98438 5.13147 5.64453 5.78381 5.38281C7.09631 4.85938 8.82288 4.5625 10.6666 4.5625C12.5104 4.5625 14.2369 4.85938 15.5494 5.38281C16.2018 5.64453 16.8151 5.98438 17.2838 6.42969C17.7565 6.87891 18.1666 7.51172 18.1666 8.3125C18.1666 9.11328 17.7565 9.74609 17.2838 10.1953C16.8151 10.6406 16.2018 10.9805 15.5494 11.2422C14.2369 11.7656 12.5104 12.0625 10.6666 12.0625C8.82288 12.0625 7.09631 11.7656 5.78381 11.2422C5.13147 10.9805 4.51819 10.6406 4.04944 10.1953C3.57678 9.74609 3.16663 9.11328 3.16663 8.3125ZM10.6666 10.8125C14.1198 10.8125 16.9166 9.69141 16.9166 8.3125C16.9166 6.93359 14.1198 5.8125 10.6666 5.8125C7.2135 5.8125 4.41663 6.93359 4.41663 8.3125C4.41663 9.69141 7.2135 10.8125 10.6666 10.8125Z" fill="#61F0FE"/>
</g>
<defs>
<clipPath id="clip0_956_122">
<rect width="20" height="20" fill="white" transform="translate(0.666626 0.5)"/>
</clipPath>
</defs>
</svg>
