<svg width="18" height="22" viewBox="0 0 18 22" fill="none" xmlns="http://www.w3.org/2000/svg">
<path d="M12.0938 8.01562V6C12.0938 5.15625 11.7812 4.4375 11.1562 3.84375C10.5625 3.21875 9.84375 2.90625 9 2.90625C8.15625 2.90625 7.42188 3.21875 6.79688 3.84375C6.20312 4.4375 5.90625 5.15625 5.90625 6V8.01562H12.0938ZM7.59375 16.4062C8 16.8125 8.46875 17.0156 9 17.0156C9.53125 17.0156 10 16.8125 10.4062 16.4062C10.8125 16 11.0156 15.5312 11.0156 15C11.0156 14.4688 10.8125 14 10.4062 13.5938C10 13.1875 9.53125 12.9844 9 12.9844C8.46875 12.9844 8 13.1875 7.59375 13.5938C7.1875 14 6.98438 14.4688 6.98438 15C6.98438 15.5312 7.1875 16 7.59375 16.4062ZM15 8.01562C15.5312 8.01562 16 8.21875 16.4062 8.625C16.8125 9 17.0156 9.45312 17.0156 9.98438V20.0156C17.0156 20.5469 16.8125 21.0156 16.4062 21.4219C16 21.7969 15.5312 21.9844 15 21.9844H3C2.46875 21.9844 2 21.7969 1.59375 21.4219C1.1875 21.0156 0.984375 20.5469 0.984375 20.0156V9.98438C0.984375 9.45312 1.1875 9 1.59375 8.625C2 8.21875 2.46875 8.01562 3 8.01562H3.98438V6C3.98438 4.625 4.46875 3.45313 5.4375 2.48438C6.4375 1.48438 7.625 0.984375 9 0.984375C10.375 0.984375 11.5469 1.48438 12.5156 2.48438C13.5156 3.45313 14.0156 4.625 14.0156 6V8.01562H15Z" fill="#61F0FE"/>
</svg>
