<svg width="186" height="25" viewBox="0 0 186 25" fill="none" xmlns="http://www.w3.org/2000/svg">
<path d="M5.25 0H0.75C0.335786 0 0 0.335787 0 0.75V17.25C0 17.6642 0.335786 18 0.75 18H5.25C5.66421 18 6 17.6642 6 17.25V0.75C6 0.335786 5.66421 0 5.25 0Z" fill="white"/>
<path d="M13.25 0H8.75C8.33579 0 8 0.335786 8 0.75V23.25C8 23.6642 8.33579 24 8.75 24H13.25C13.6642 24 14 23.6642 14 23.25V0.75C14 0.335786 13.6642 0 13.25 0Z" fill="white"/>
<path d="M34.012 24.2V17.258H33.596C33.4053 17.6047 33.128 17.9427 32.764 18.272C32.4 18.584 31.932 18.844 31.36 19.052C30.8053 19.26 30.112 19.364 29.28 19.364C28.2053 19.364 27.2173 19.104 26.316 18.584C25.4147 18.064 24.6953 17.3187 24.158 16.348C23.6207 15.36 23.352 14.1727 23.352 12.786V12.396C23.352 11.0093 23.6207 9.83067 24.158 8.86C24.7127 7.872 25.4407 7.118 26.342 6.598C27.2433 6.078 28.2227 5.818 29.28 5.818C30.528 5.818 31.4813 6.04333 32.14 6.494C32.816 6.94467 33.3187 7.456 33.648 8.028H34.064V6.182H36.69V24.2H34.012ZM30.034 17.024C31.2127 17.024 32.1747 16.6513 32.92 15.906C33.6653 15.1607 34.038 14.0947 34.038 12.708V12.474C34.038 11.1047 33.6567 10.0473 32.894 9.302C32.1487 8.55667 31.1953 8.184 30.034 8.184C28.89 8.184 27.9367 8.55667 27.174 9.302C26.4287 10.0473 26.056 11.1047 26.056 12.474V12.708C26.056 14.0947 26.4287 15.1607 27.174 15.906C27.9367 16.6513 28.89 17.024 30.034 17.024ZM43.7263 19.234C42.7556 19.234 41.8889 19.0173 41.1263 18.584C40.3636 18.1507 39.7656 17.5353 39.3323 16.738C38.8989 15.9407 38.6823 14.9873 38.6823 13.878V6.182H41.3603V13.696C41.3603 14.8053 41.6376 15.6287 42.1923 16.166C42.7469 16.686 43.5183 16.946 44.5063 16.946C45.5983 16.946 46.4736 16.582 47.1323 15.854C47.8083 15.1087 48.1463 14.0427 48.1463 12.656V6.182H50.8243V19H48.1983V17.076H47.7823C47.5396 17.596 47.1063 18.09 46.4823 18.558C45.8583 19.0087 44.9396 19.234 43.7263 19.234ZM60.373 19.364C59.125 19.364 58.163 19.1387 57.487 18.688C56.8283 18.2373 56.3343 17.7347 56.005 17.18H55.589V19H52.963V0.799999H55.641V7.924H56.057C56.265 7.57733 56.5423 7.248 56.889 6.936C57.2356 6.60667 57.695 6.338 58.267 6.13C58.839 5.922 59.541 5.818 60.373 5.818C61.4476 5.818 62.4356 6.078 63.337 6.598C64.2383 7.118 64.9576 7.872 65.495 8.86C66.0323 9.848 66.301 11.0267 66.301 12.396V12.786C66.301 14.1727 66.0236 15.36 65.469 16.348C64.9316 17.3187 64.2123 18.064 63.311 18.584C62.427 19.104 61.4476 19.364 60.373 19.364ZM59.593 17.024C60.7543 17.024 61.7076 16.6513 62.453 15.906C63.2156 15.1607 63.597 14.0947 63.597 12.708V12.474C63.597 11.1047 63.2243 10.0473 62.479 9.302C61.7336 8.55667 60.7716 8.184 59.593 8.184C58.449 8.184 57.4956 8.55667 56.733 9.302C55.9876 10.0473 55.615 11.1047 55.615 12.474V12.708C55.615 14.0947 55.9876 15.1607 56.733 15.906C57.4956 16.6513 58.449 17.024 59.593 17.024ZM67.7992 19V6.182H70.4772V19H67.7992ZM69.1512 4.44C68.6312 4.44 68.1892 4.27533 67.8252 3.946C67.4785 3.59933 67.3052 3.15733 67.3052 2.62C67.3052 2.08267 67.4785 1.64933 67.8252 1.32C68.1892 0.973332 68.6312 0.799999 69.1512 0.799999C69.6885 0.799999 70.1305 0.973332 70.4772 1.32C70.8239 1.64933 70.9972 2.08267 70.9972 2.62C70.9972 3.15733 70.8239 3.59933 70.4772 3.946C70.1305 4.27533 69.6885 4.44 69.1512 4.44ZM78.5855 19.364C77.3549 19.364 76.2369 19.104 75.2315 18.584C74.2435 18.064 73.4549 17.31 72.8655 16.322C72.2935 15.334 72.0075 14.1467 72.0075 12.76V12.422C72.0075 11.0353 72.2935 9.85667 72.8655 8.886C73.4549 7.898 74.2435 7.144 75.2315 6.624C76.2369 6.08667 77.3549 5.818 78.5855 5.818C79.8162 5.818 80.8649 6.04333 81.7315 6.494C82.5982 6.94467 83.2915 7.54267 83.8115 8.288C84.3489 9.03333 84.6955 9.85667 84.8515 10.758L82.2515 11.304C82.1649 10.732 81.9829 10.212 81.7055 9.744C81.4282 9.276 81.0382 8.90333 80.5355 8.626C80.0329 8.34867 79.4002 8.21 78.6375 8.21C77.8922 8.21 77.2162 8.38333 76.6095 8.73C76.0202 9.05933 75.5522 9.54467 75.2055 10.186C74.8589 10.81 74.6855 11.5727 74.6855 12.474V12.708C74.6855 13.6093 74.8589 14.3807 75.2055 15.022C75.5522 15.6633 76.0202 16.1487 76.6095 16.478C77.2162 16.8073 77.8922 16.972 78.6375 16.972C79.7642 16.972 80.6222 16.686 81.2115 16.114C81.8009 15.5247 82.1735 14.7793 82.3295 13.878L84.9295 14.476C84.7215 15.36 84.3489 16.1747 83.8115 16.92C83.2915 17.6653 82.5982 18.2633 81.7315 18.714C80.8649 19.1473 79.8162 19.364 78.5855 19.364Z" fill="white"/>
<path d="M99.008 19.364C97.7773 19.364 96.668 19.104 95.68 18.584C94.7093 18.0467 93.938 17.284 93.366 16.296C92.8113 15.308 92.534 14.138 92.534 12.786V12.5C92.534 11.1307 92.8113 9.96067 93.366 8.99C93.938 8.002 94.7093 7.248 95.68 6.728C96.668 6.19067 97.7773 5.922 99.008 5.922C100.221 5.922 101.253 6.14733 102.102 6.598C102.969 7.04867 103.645 7.64667 104.13 8.392C104.633 9.13733 104.953 9.93467 105.092 10.784L103.09 11.2C103.003 10.576 102.795 10.004 102.466 9.484C102.154 8.964 101.712 8.548 101.14 8.236C100.568 7.924 99.866 7.768 99.034 7.768C98.1847 7.768 97.422 7.95867 96.746 8.34C96.0873 8.72133 95.5587 9.26733 95.16 9.978C94.7787 10.6887 94.588 11.538 94.588 12.526V12.76C94.588 13.748 94.7787 14.5973 95.16 15.308C95.5587 16.0187 96.0873 16.5647 96.746 16.946C97.422 17.3273 98.1847 17.518 99.034 17.518C100.299 17.518 101.261 17.1887 101.92 16.53C102.596 15.8713 103.012 15.0567 103.168 14.086L105.196 14.528C105.005 15.36 104.659 16.1487 104.156 16.894C103.653 17.6393 102.969 18.2373 102.102 18.688C101.253 19.1387 100.221 19.364 99.008 19.364ZM112.753 19.364C111.47 19.364 110.335 19.0953 109.347 18.558C108.376 18.0207 107.614 17.2667 107.059 16.296C106.522 15.308 106.253 14.1467 106.253 12.812V12.474C106.253 11.1567 106.522 10.004 107.059 9.016C107.614 8.028 108.376 7.26533 109.347 6.728C110.335 6.19067 111.47 5.922 112.753 5.922C114.036 5.922 115.162 6.19067 116.133 6.728C117.121 7.26533 117.884 8.028 118.421 9.016C118.976 10.004 119.253 11.1567 119.253 12.474V12.812C119.253 14.1467 118.976 15.308 118.421 16.296C117.884 17.2667 117.121 18.0207 116.133 18.558C115.162 19.0953 114.036 19.364 112.753 19.364ZM112.753 17.518C114.105 17.518 115.18 17.0933 115.977 16.244C116.792 15.3773 117.199 14.216 117.199 12.76V12.526C117.199 11.07 116.792 9.91733 115.977 9.068C115.18 8.20133 114.105 7.768 112.753 7.768C111.418 7.768 110.344 8.20133 109.529 9.068C108.714 9.91733 108.307 11.07 108.307 12.526V12.76C108.307 14.216 108.714 15.3773 109.529 16.244C110.344 17.0933 111.418 17.518 112.753 17.518ZM121.129 19V6.286H123.131V8.444H123.495C123.773 7.83733 124.241 7.29133 124.899 6.806C125.575 6.30333 126.563 6.052 127.863 6.052C128.817 6.052 129.666 6.25133 130.411 6.65C131.174 7.04867 131.781 7.638 132.231 8.418C132.682 9.198 132.907 10.16 132.907 11.304V19H130.853V11.46C130.853 10.1947 130.533 9.276 129.891 8.704C129.267 8.132 128.418 7.846 127.343 7.846C126.113 7.846 125.107 8.24467 124.327 9.042C123.565 9.83933 123.183 11.0267 123.183 12.604V19H121.129ZM135.255 19V6.286H137.257V8.444H137.621C137.898 7.83733 138.366 7.29133 139.025 6.806C139.701 6.30333 140.689 6.052 141.989 6.052C142.942 6.052 143.791 6.25133 144.537 6.65C145.299 7.04867 145.906 7.638 146.357 8.418C146.807 9.198 147.033 10.16 147.033 11.304V19H144.979V11.46C144.979 10.1947 144.658 9.276 144.017 8.704C143.393 8.132 142.543 7.846 141.469 7.846C140.238 7.846 139.233 8.24467 138.453 9.042C137.69 9.83933 137.309 11.0267 137.309 12.604V19H135.255ZM155.204 19.364C153.921 19.364 152.795 19.0953 151.824 18.558C150.853 18.0033 150.099 17.232 149.562 16.244C149.025 15.256 148.756 14.112 148.756 12.812V12.5C148.756 11.1827 149.025 10.03 149.562 9.042C150.099 8.054 150.845 7.29133 151.798 6.754C152.751 6.19933 153.843 5.922 155.074 5.922C156.27 5.922 157.327 6.182 158.246 6.702C159.165 7.20467 159.884 7.93267 160.404 8.886C160.924 9.83933 161.184 10.9573 161.184 12.24V13.176H150.81C150.862 14.5453 151.304 15.62 152.136 16.4C152.968 17.1627 154.008 17.544 155.256 17.544C156.348 17.544 157.189 17.2927 157.778 16.79C158.367 16.2873 158.818 15.6893 159.13 14.996L160.898 15.854C160.638 16.3913 160.274 16.9287 159.806 17.466C159.355 18.0033 158.757 18.454 158.012 18.818C157.284 19.182 156.348 19.364 155.204 19.364ZM150.836 11.486H159.104C159.035 10.3073 158.627 9.38867 157.882 8.73C157.154 8.07133 156.218 7.742 155.074 7.742C153.913 7.742 152.959 8.07133 152.214 8.73C151.469 9.38867 151.009 10.3073 150.836 11.486ZM168.797 19.364C167.566 19.364 166.457 19.104 165.469 18.584C164.498 18.0467 163.727 17.284 163.155 16.296C162.6 15.308 162.323 14.138 162.323 12.786V12.5C162.323 11.1307 162.6 9.96067 163.155 8.99C163.727 8.002 164.498 7.248 165.469 6.728C166.457 6.19067 167.566 5.922 168.797 5.922C170.01 5.922 171.041 6.14733 171.891 6.598C172.757 7.04867 173.433 7.64667 173.919 8.392C174.421 9.13733 174.742 9.93467 174.881 10.784L172.879 11.2C172.792 10.576 172.584 10.004 172.255 9.484C171.943 8.964 171.501 8.548 170.929 8.236C170.357 7.924 169.655 7.768 168.823 7.768C167.973 7.768 167.211 7.95867 166.535 8.34C165.876 8.72133 165.347 9.26733 164.949 9.978C164.567 10.6887 164.377 11.538 164.377 12.526V12.76C164.377 13.748 164.567 14.5973 164.949 15.308C165.347 16.0187 165.876 16.5647 166.535 16.946C167.211 17.3273 167.973 17.518 168.823 17.518C170.088 17.518 171.05 17.1887 171.709 16.53C172.385 15.8713 172.801 15.0567 172.957 14.086L174.985 14.528C174.794 15.36 174.447 16.1487 173.945 16.894C173.442 17.6393 172.757 18.2373 171.891 18.688C171.041 19.1387 170.01 19.364 168.797 19.364ZM180.813 19C180.085 19 179.521 18.8007 179.123 18.402C178.741 18.0033 178.551 17.4573 178.551 16.764V8.08H174.729V6.286H178.551V1.762H180.605V6.286H184.765V8.08H180.605V16.452C180.605 16.972 180.856 17.232 181.359 17.232H184.193V19H180.813Z" fill="#61F0FE"/>
</svg>
