<svg width="20" height="21" viewBox="0 0 20 21" fill="none" xmlns="http://www.w3.org/2000/svg">
<path d="M18.125 15.9141C19.3047 15.0938 20 14.0859 20 13V11.832C19.4844 12.4414 18.8398 12.9766 18.125 13.4297V15.918V15.9141ZM13.125 15.2383V17.75C14.5391 17.5156 15.8164 17.1289 16.875 16.6289V14.1016C15.7656 14.6133 14.4961 15 13.125 15.2344V15.2383ZM8.125 17.9141C8.73047 17.9727 9.35938 18 10 18C10.6406 18 11.2695 17.9687 11.875 17.9141V15.4102C11.2617 15.4727 10.6367 15.5039 10 15.5039C9.36328 15.5039 8.73828 15.4727 8.125 15.4102V17.9141ZM3.125 14.1055V16.6328C4.18359 17.1328 5.46094 17.5195 6.875 17.7539V15.2422C5.50391 15.0078 4.23438 14.6211 3.125 14.1094V14.1055ZM1.875 13.4297C1.16016 12.9805 0.515625 12.4453 0 11.832V13C0 14.0898 0.695312 15.0938 1.875 15.9141V13.4297ZM2.5 8.3125C2.5 9.11328 2.91016 9.74609 3.38281 10.1953C3.85156 10.6406 4.46484 10.9805 5.11719 11.2422C6.42969 11.7656 8.15625 12.0625 10 12.0625C11.8438 12.0625 13.5703 11.7656 14.8828 11.2422C15.5352 10.9805 16.1484 10.6406 16.6172 10.1953C17.0898 9.74609 17.5 9.11328 17.5 8.3125C17.5 7.51172 17.0898 6.87891 16.6172 6.42969C16.1484 5.98438 15.5352 5.64453 14.8828 5.38281C13.5703 4.85938 11.8438 4.5625 10 4.5625C8.15625 4.5625 6.42969 4.85938 5.11719 5.38281C4.46484 5.64453 3.85156 5.98438 3.38281 6.42969C2.91016 6.87891 2.5 7.51172 2.5 8.3125ZM10 10.8125C6.54688 10.8125 3.75 9.69141 3.75 8.3125C3.75 6.93359 6.54688 5.8125 10 5.8125C13.4531 5.8125 16.25 6.93359 16.25 8.3125C16.25 9.69141 13.4531 10.8125 10 10.8125Z" fill="#61F0FE"/>
<path opacity="0.4" d="M0 8.625C0 11.7305 4.47656 14.25 10 14.25C15.5234 14.25 20 11.7305 20 8.625C20 5.51953 15.5234 3 10 3C4.47656 3 0 5.51953 0 8.625ZM2.5 8.3125C2.5 7.51172 2.91016 6.87891 3.38281 6.42969C3.85156 5.98438 4.46484 5.64453 5.11719 5.38281C6.42969 4.85938 8.15625 4.5625 10 4.5625C11.8438 4.5625 13.5703 4.85938 14.8828 5.38281C15.5352 5.64453 16.1484 5.98438 16.6172 6.42969C17.0898 6.87891 17.5 7.51172 17.5 8.3125C17.5 9.11328 17.0898 9.74609 16.6172 10.1953C16.1484 10.6406 15.5352 10.9805 14.8828 11.2422C13.5703 11.7656 11.8438 12.0625 10 12.0625C8.15625 12.0625 6.42969 11.7656 5.11719 11.2422C4.46484 10.9805 3.85156 10.6406 3.38281 10.1953C2.91016 9.74609 2.5 9.11328 2.5 8.3125ZM10 10.8125C13.4531 10.8125 16.25 9.69141 16.25 8.3125C16.25 6.93359 13.4531 5.8125 10 5.8125C6.54688 5.8125 3.75 6.93359 3.75 8.3125C3.75 9.69141 6.54688 10.8125 10 10.8125Z" fill="#61F0FE"/>
</svg>
