<svg width="18" height="22" viewBox="0 0 18 22" version="1.1" xmlns="http://www.w3.org/2000/svg" style="fill-rule:evenodd;clip-rule:evenodd;stroke-linejoin:round;stroke-miterlimit:2;">
    <path d="M5.906,5L3.984,5C3.984,3.625 4.469,2.453 5.438,1.484C6.438,0.484 7.625,-0.016 9,-0.016C10.375,-0.016 11.547,0.484 12.516,1.484C13.516,2.453 14.016,3.625 14.016,5L14.016,8.016L15,8.016C15.531,8.016 16,8.219 16.406,8.625C16.813,9 17.016,9.453 17.016,9.984L17.016,20.016C17.016,20.547 16.813,21.016 16.406,21.422C16,21.797 15.531,21.984 15,21.984L3,21.984C2.469,21.984 2,21.797 1.594,21.422C1.188,21.016 0.984,20.547 0.984,20.016L0.984,9.984C0.984,9.453 1.188,9 1.594,8.625C2,8.219 2.469,8.016 3,8.016L12.094,8.016L12.094,5C12.094,4.156 11.781,3.438 11.156,2.844C10.563,2.219 9.844,1.906 9,1.906C8.156,1.906 7.422,2.219 6.797,2.844C6.203,3.438 5.906,4.156 5.906,5ZM7.594,16.406C8,16.813 8.469,17.016 9,17.016C9.531,17.016 10,16.813 10.406,16.406C10.813,16 11.016,15.531 11.016,15C11.016,14.469 10.813,14 10.406,13.594C10,13.188 9.531,12.984 9,12.984C8.469,12.984 8,13.188 7.594,13.594C7.188,14 6.984,14.469 6.984,15C6.984,15.531 7.188,16 7.594,16.406Z" style="fill:rgb(97,240,254);"/>
</svg>
